<svg xmlns="http://www.w3.org/2000/svg" viewBox="0 0 1024 1024">
  <rect width="1024" height="1024" rx="224" fill="#f8fafc" />
  <rect
    x="112"
    y="112"
    width="800"
    height="800"
    rx="176"
    fill="#ffffff"
    stroke="#dbe4ee"
    stroke-width="28"
  />
  <path
    d="M284 644c62 66 143 99 244 99 59 0 107-11 145-34 40-24 60-57 60-99 0-40-15-72-46-97-28-23-73-43-134-59l-83-22c-45-12-77-24-96-37-18-13-27-31-27-53 0-28 15-50 45-67 30-18 69-27 117-27 72 0 136 22 192 67l42-88c-61-50-139-75-234-75-61 0-111 12-151 37-47 29-70 70-70 124 0 43 15 77 45 101 28 23 73 43 136 59l82 21c45 12 77 24 96 38 18 13 27 31 27 54 0 26-13 47-39 62-27 16-62 24-106 24-80 0-147-27-202-80l-41 91Z"
    fill="#17324d"
  />
  <path
    d="M269 769 777 261"
    fill="none"
    stroke="#2563eb"
    stroke-linecap="round"
    stroke-width="68"
  />
  <path
    d="M711 206 818 313"
    fill="none"
    stroke="#14b8a6"
    stroke-linecap="round"
    stroke-width="68"
  />
</svg>
